<svg width="676" height="82" viewBox="0 0 676 82" fill="none" xmlns="http://www.w3.org/2000/svg">
<path d="M50.2 53.6H23.6L19 80H0.9L13.6 8H63.8L61 23.6H28.8L26.3 38H52.9L50.2 53.6ZM82.4563 67.2C83.9896 67.2 85.3563 66.8667 86.5563 66.2L86.0563 77.5C82.9229 80.1 79.3563 81.4 75.3563 81.4C69.2896 81.4 65.3563 80 63.5563 77.2C62.3563 75.3333 61.7563 73.3667 61.7563 71.3C61.7563 69.1667 61.8896 67.3 62.1563 65.7L68.1563 31.9H85.1563L79.5563 63.4C79.4896 63.8 79.4563 64.1667 79.4563 64.5C79.4563 66.3 80.4563 67.2 82.4563 67.2ZM70.1563 15.6C70.1563 11.3333 71.0896 8.23333 72.9563 6.3C74.8896 4.3 77.8563 3.3 81.8563 3.3C87.4563 3.3 90.2563 5.76666 90.2563 10.7C90.2563 14.9 89.2896 17.9667 87.3563 19.9C85.4896 21.8333 82.5229 22.8 78.4563 22.8C72.9229 22.8 70.1563 20.4 70.1563 15.6ZM124.904 49.3C124.904 46.4333 123.504 45 120.704 45C117.971 45 115.704 46.0333 113.904 48.1L108.304 80H91.3039L99.8039 31.9H115.604L114.504 37.8C118.437 32.9333 123.404 30.5 129.404 30.5C135.404 30.5 139.304 31.9667 141.104 34.9C142.237 36.7667 142.804 38.9 142.804 41.3C142.804 43.7 142.637 45.9333 142.304 48L139.604 63.4C139.537 63.8 139.504 64.1667 139.504 64.5C139.504 66.3 140.504 67.2 142.504 67.2C144.037 67.2 145.404 66.8667 146.604 66.2L146.104 77.5C142.971 80.1 139.404 81.4 135.404 81.4C126.337 81.4 121.804 77.6 121.804 70C121.804 68.6667 121.937 67.2333 122.204 65.7L124.604 52.4C124.804 51.2 124.904 50.1667 124.904 49.3ZM199.37 64.6C199.37 66.3333 200.236 67.2 201.97 67.2C203.77 67.2 205.27 66.8667 206.47 66.2L205.97 77.5C202.77 80.1 199.17 81.4 195.17 81.4C187.836 81.4 183.77 78.7333 182.97 73.4C179.636 78.7333 174.736 81.4 168.27 81.4C157.336 81.4 151.87 76.7 151.87 67.3C151.87 65.7 152.036 63.9333 152.37 62L154.47 50.3C155.536 44.3 157.97 39.5333 161.77 36C165.636 32.4 170.97 30.6 177.77 30.6C181.97 30.6 185.303 31.5 187.77 33.3L192.87 4.09999H209.97L199.47 63.4C199.403 63.8 199.37 64.2 199.37 64.6ZM169.77 59.8C169.636 60.4 169.57 61.2333 169.57 62.3C169.57 63.3667 170.07 64.4333 171.07 65.5C172.07 66.5 173.736 67 176.07 67C178.47 67 180.536 66.0667 182.27 64.2L185.27 47.4C184.536 45.7333 182.803 44.9 180.07 44.9C174.936 44.9 171.936 47.3667 171.07 52.3L169.77 59.8ZM260.002 81.4C252.269 81.4 246.702 79.6667 243.302 76.2C240.769 73.6667 239.502 70.2667 239.502 66C239.502 64.6 239.636 63.1 239.902 61.5L246.702 22.8L265.002 15.2L262.102 31.9H289.702L287.202 46H259.602L257.602 57.3C257.336 58.5667 257.202 59.7 257.202 60.7C257.202 64.9 259.202 67 263.202 67C265.336 67 267.102 66.1 268.502 64.3C269.969 62.5 270.969 60.1 271.502 57.1H288.102C285.302 73.3 275.936 81.4 260.002 81.4ZM345.385 67.2C346.918 67.2 348.285 66.8667 349.485 66.2L348.985 77.5C345.852 80.1 342.285 81.4 338.285 81.4C329.218 81.4 324.685 77.6 324.685 70C324.685 68.6667 324.818 67.2333 325.085 65.7L327.285 53.4C327.485 52.2 327.585 51 327.585 49.8C327.585 46.6 325.885 45 322.485 45C319.152 45 316.552 46.1333 314.685 48.4L309.085 80H292.085L305.485 4.09999H322.485L316.785 36.4C320.452 32.4667 325.052 30.5 330.585 30.5C337.318 30.5 341.685 32 343.685 35C345.085 37 345.785 39.2333 345.785 41.7C345.785 44.1667 345.585 46.4333 345.185 48.5L342.485 63.4C342.418 63.8 342.385 64.1667 342.385 64.5C342.385 66.3 343.385 67.2 345.385 67.2ZM375.599 81.4C361.733 81.4 354.799 76.6 354.799 67C354.799 65.6667 354.933 64.2333 355.199 62.7L357.299 50.3C358.433 43.9 361.366 39 366.099 35.6C370.899 32.1333 377.233 30.4 385.099 30.4C398.499 30.4 405.199 35.4667 405.199 45.6C405.199 47.0667 405.066 48.6667 404.799 50.4L403.599 57.5H373.099L372.699 59.8C372.566 60.6 372.499 61.3333 372.499 62C372.499 65.6667 374.666 67.5 378.999 67.5C380.599 67.5 381.966 67 383.099 66C384.233 65 384.899 63.8333 385.099 62.5L401.699 62.7C399.499 75.1667 390.799 81.4 375.599 81.4ZM387.599 51.4C387.866 50.2667 387.999 49.2333 387.999 48.3C387.999 47.3 387.566 46.3 386.699 45.3C385.833 44.3 384.433 43.8 382.499 43.8C380.633 43.8 378.899 44.4333 377.299 45.7C375.766 46.9667 374.699 48.8667 374.099 51.4H387.599ZM470.798 80H452.698L461.198 32C459.598 34.6 456.665 37.1 452.398 39.5C448.132 41.9 443.665 43.1 438.998 43.1L437.698 26.3C443.965 26.3 449.832 24.4 455.298 20.6C460.765 16.7333 464.132 12.5333 465.398 8H483.398L470.798 80ZM508.584 7.29999C517.051 7.29999 521.284 10.9333 521.284 18.2C521.284 19.4 521.151 20.7333 520.884 22.2L519.684 29.2C517.884 39.3333 511.984 44.4 501.984 44.4C493.451 44.4 489.184 40.7667 489.184 33.5C489.184 32.1667 489.318 30.7333 489.584 29.2L490.784 22.2C492.451 12.2667 498.384 7.29999 508.584 7.29999ZM499.784 31.8C499.784 34.3333 501.051 35.6 503.584 35.6C505.051 35.6 506.218 35.1333 507.084 34.2C508.018 33.2667 508.718 31.5333 509.184 29L510.384 22.4C510.518 21.6 510.584 20.8667 510.584 20.2C510.584 17.4667 509.384 16.1 506.984 16.1C503.918 16.1 502.018 18.2 501.284 22.4L500.084 29C499.884 30.0667 499.784 31 499.784 31.8ZM493.084 80L545.184 7.29999H559.184L507.084 80H493.084ZM549.784 44.5C558.318 44.5 562.584 48.0667 562.584 55.2C562.584 56.4667 562.451 57.8667 562.184 59.4L560.884 66.4C559.951 71.5333 558.051 75.3667 555.184 77.9C552.384 80.3667 548.418 81.6 543.284 81.6C534.684 81.6 530.384 77.9667 530.384 70.7C530.384 69.4333 530.518 68 530.784 66.4L532.084 59.4C533.884 49.4667 539.784 44.5 549.784 44.5ZM541.184 68.9C541.184 71.5 542.384 72.8 544.784 72.8C546.251 72.8 547.451 72.3333 548.384 71.4C549.384 70.4667 550.084 68.7333 550.484 66.2L551.584 59.6C551.718 58.8 551.784 58.0667 551.784 57.4C551.784 54.6667 550.584 53.3 548.184 53.3C545.118 53.3 543.218 55.4 542.484 59.6L541.384 66.2C541.251 67.2 541.184 68.1 541.184 68.9ZM611.004 53.8H597.704L604.904 0.899999H621.904L611.004 53.8ZM591.604 74.2C591.604 69.9333 592.537 66.8333 594.404 64.9C596.271 62.9 599.237 61.9 603.304 61.9C608.904 61.9 611.704 64.3667 611.704 69.3C611.704 73.5 610.737 76.5667 608.804 78.5C606.937 80.4333 603.971 81.4 599.904 81.4C594.371 81.4 591.604 79 591.604 74.2ZM664.422 53.8H651.122L658.322 0.899999H675.322L664.422 53.8ZM645.022 74.2C645.022 69.9333 645.955 66.8333 647.822 64.9C649.689 62.9 652.655 61.9 656.722 61.9C662.322 61.9 665.122 64.3667 665.122 69.3C665.122 73.5 664.155 76.5667 662.222 78.5C660.355 80.4333 657.389 81.4 653.322 81.4C647.789 81.4 645.022 79 645.022 74.2Z" fill="url(#paint0_linear_103_3)"/>
<defs>
<linearGradient id="paint0_linear_103_3" x1="-1" y1="33" x2="675" y2="33" gradientUnits="userSpaceOnUse">
<stop stop-color="#0047FF"/>
<stop offset="1" stop-color="#71FFBB"/>
</linearGradient>
</defs>
</svg>
